<?xml version="1.0" encoding="iso-8859-1"?>
<!-- Uploaded to: SVG Repo, www.svgrepo.com, Generator: SVG Repo Mixer Tools -->
<!DOCTYPE svg PUBLIC "-//W3C//DTD SVG 1.1//EN" "http://www.w3.org/Graphics/SVG/1.1/DTD/svg11.dtd">
<svg height="800px" width="800px" version="1.1" id="Capa_1" xmlns="http://www.w3.org/2000/svg" xmlns:xlink="http://www.w3.org/1999/xlink" 
	 viewBox="0 0 370.32 370.32" xml:space="preserve">
<path style="fill:#020202;" d="M316.242,223.775H288.58V73.703c0-3.934-1.56-7.705-4.344-10.483L225.361,4.34
	C222.576,1.562,218.811,0,214.877,0H37.691C21.639,0,8.58,13.061,8.58,29.113v312.095c0,16.054,13.059,29.112,29.111,29.112h221.777
	c16.053,0,29.111-13.059,29.111-29.112v-26.436h27.662c25.088,0,45.498-20.41,45.498-45.498S341.33,223.775,316.242,223.775z
	 M256.967,337.907H40.193V32.414h154.088v43.577c0,10.554,8.555,19.106,19.105,19.106h43.58v128.678h-51.822
	c-25.088,0-45.498,20.41-45.498,45.498s20.41,45.498,45.498,45.498h51.822V337.907z M316.756,289.205H205.658
	c-11.303,0-20.498-9.195-20.498-20.498c0-11.303,9.195-20.498,20.498-20.498h111.098c11.303,0,20.498,9.195,20.498,20.498
	C337.254,280.01,328.059,289.205,316.756,289.205z"/>
</svg>