<!DOCTYPE svg PUBLIC "-//W3C//DTD SVG 1.1//EN" "http://www.w3.org/Graphics/SVG/1.1/DTD/svg11.dtd">
<!-- Uploaded to: SVG Repo, www.svgrepo.com, Transformed by: SVG Repo Mixer Tools -->
<svg width="800px" height="800px" viewBox="0 0 24 24" fill="none" xmlns="http://www.w3.org/2000/svg" stroke="#ffffff">
<g id="SVGRepo_bgCarrier" stroke-width="0"/>
<g id="SVGRepo_tracerCarrier" stroke-linecap="round" stroke-linejoin="round"/>
<g id="SVGRepo_iconCarrier"> <path d="M12 6.5V18.5" stroke="#ffffffffffff222222" stroke-linecap="round"/> <path d="M20.5 6.5V18.5" stroke="#ffffffffffff222222" stroke-linecap="round"/> <path d="M3.5 6.5V18.5" stroke="#ffffffffffff222222" stroke-linecap="round"/> <path d="M20.5 18.5C20.5 18.5 19.5 16.5 16 16.5C12.5 16.5 12 18.5 12 18.5" stroke="#ffffffffffff" stroke-linecap="round"/> <path d="M3.5 18.5C3.5 18.5 4.5 16.5 8 16.5C11.5 16.5 12 18.5 12 18.5" stroke="#ffffffffffff" stroke-linecap="round"/> <path d="M20.5 6.5C20.5 6.5 19.5 4.5 16 4.5C12.5 4.5 12 6.5 12 6.5" stroke="#ffffffffffff" stroke-linecap="round"/> <path d="M3.5 6.5C3.5 6.5 4.5 4.5 8 4.5C11.5 4.5 12 6.5 12 6.5" stroke="#ffffffffffff" stroke-linecap="round"/> </g>
</svg>